<?xml version="1.0" encoding="UTF-8" standalone="no"?>
<svg
   xmlns:dc="http://purl.org/dc/elements/1.1/"
   xmlns:cc="http://creativecommons.org/ns#"
   xmlns:rdf="http://www.w3.org/1999/02/22-rdf-syntax-ns#"
   xmlns:svg="http://www.w3.org/2000/svg"
   xmlns="http://www.w3.org/2000/svg"
   width="434.91385mm"
   height="96.907043mm"
   viewBox="0 0 434.91385 96.907043"
   version="1.1"
   id="svg8">
  <defs
     id="defs2">
    <style
       id="style52"
       type="text/css">
.invert .text {fill: #FFF;}
.Storefront_2017_B2P_variant_1.header .img, .b2p-yellow-header.header .img, .alt.header .img {fill:#FFF}
.text{fill: #ffffff; fill-rule:evenodd;}
.img{fill: #FFC94C;}
.invert .img {fill:none;}
</style>
  </defs>
  <metadata
     id="metadata5">
    <rdf:RDF>
      <cc:Work
         rdf:about="">
        <dc:format>image/svg+xml</dc:format>
        <dc:type
           rdf:resource="http://purl.org/dc/dcmitype/StillImage" />
        <dc:title></dc:title>
      </cc:Work>
    </rdf:RDF>
  </metadata>
  <g
     id="layer1"
     transform="translate(-225.90914,-178.71017)">
    <path
       id="path64"
       style="fill:#ffffff;fill-rule:evenodd;stroke-width:1.78633;fill-opacity:1"
       d="M 1083.7207 115.33203 C 1032.5074 115.33203 993.9043 155.85351 993.9043 209.76367 C 993.9043 264.74937 1032.4506 304.14726 1085.832 304.20312 C 1102.027 304.16117 1116.7236 301.12299 1129.9277 295.0957 C 1143.2156 289.01955 1154.8725 280.26022 1164.8906 268.82031 L 1142.7422 245.17188 L 1142.6934 245.22852 C 1135.3383 253.05766 1127.0622 259.05818 1117.8457 263.91211 C 1108.7059 268.47971 1098.2985 270.7832 1086.5723 270.7832 C 1058.8811 270.7832 1034.7788 249.88055 1031.293 222.36328 L 1170.7324 222.36328 C 1170.7664 221.96518 1170.7943 221.56021 1170.8223 221.16211 C 1171.1428 216.8739 1171.3047 212.59853 1171.3047 208.27539 C 1171.3047 156.97031 1134.5645 115.33203 1083.7207 115.33203 z M 1082.9531 148.04492 C 1109.3127 148.04492 1129.824 166.6789 1133.4004 191.66797 L 1032.1797 191.66797 C 1033.8319 181.16391 1039.7984 170.4772 1048.5547 162.29883 C 1057.6805 153.77127 1069.7559 148.04492 1082.9531 148.04492 z "
       transform="matrix(0.26458333,0,0,0.26458333,225.90914,178.71017)" />
    <path
       d="m 318.2666,241.60528 c 8.46472,-24.84279 -4.77743,-51.85498 -29.57579,-60.33487 -24.79836,-8.47804 -51.76224,4.78784 -60.22511,29.62878 -8.46472,24.8428 4.77743,51.85499 29.57579,60.33487 24.79836,8.47804 51.76224,-4.78783 60.22511,-29.62878"
       id="path48"
       style="fill:#202843;fill-rule:evenodd;stroke-width:0.472632;fill-opacity:1" />
    <path
       class="img"
       d="m 233.19333,251.54129 c 7.3838,-3.52943 32.51418,-15.88615 37.46684,-18.7947 4.06727,-2.37452 10.12483,-5.87624 10.12483,-5.87624 l 2.56948,5.24611 3.9234,25.85358 2.99741,-1.7333 1.99214,-36.11112 c 6.05571,-3.79183 11.3902,-7.48204 16.97371,-11.34224 2.04746,-1.41547 4.12813,-2.85496 6.28812,-4.32956 -0.68433,-1.32493 -1.42954,-2.61659 -2.23192,-3.8676 -2.35551,1.13644 -4.63909,2.22114 -6.88393,3.28921 -6.13134,2.9141 -11.98784,5.69699 -18.29441,9.05273 l -32.21168,-16.32411 -2.99742,1.73331 20.388,16.32964 3.24459,4.84328 0.006,0.009 c 0,0 -6.05571,3.50356 -10.14328,5.84666 -4.98955,2.84203 -28.24216,18.46949 -34.98221,23.10764 0.55337,1.0459 1.14363,2.06777 1.77079,3.06747"
       id="path54"
       style="fill-rule:evenodd;stroke-width:0.472632" />
    <path
       d="m 651.64442,215.67409 v -5.21654 h 9.17857 v 47.52912 h -9.44418 v -5.39764 c -3.36818,3.93228 -8.10688,6.52854 -14.9576,6.52854 -13.48747,0 -22.15509,-10.7694 -22.15509,-24.86682 0,-14.00132 8.66762,-24.86866 22.15509,-24.86866 5.99484,0 11.55252,2.26549 15.22321,6.292 z m -0.63453,9.32806 c -2.79636,-4.14477 -7.52214,-6.69484 -13.08167,-6.69484 -8.35035,0 -14.10171,7.0829 -14.10171,15.94344 0,8.86055 5.54108,16.1541 14.10171,16.1541 5.72001,0 10.34802,-3.26519 13.08167,-7.49682 v -17.90588"
       id="path56"
       style="fill:#ffffff;fill-rule:evenodd;stroke-width:0.472632;fill-opacity:1" />
    <path
       d="m 595.25785,198.22094 c 0,-3.65324 2.98636,-6.60614 6.6718,-6.60614 3.56924,0 6.59433,3.03051 6.59433,6.60614 0,3.69205 -2.94762,6.68376 -6.59433,6.68376 -3.68544,0 -6.6718,-2.99171 -6.6718,-6.68376"
       id="path58"
       style="fill:#ffffff;fill-rule:evenodd;stroke-width:0.472632;fill-opacity:1" />
    <path
       d="m 596.98437,257.98852 h 9.81309 V 210.4557 h -9.81309 z m 0,0"
       id="path60"
       style="fill:#ffffff;fill-rule:evenodd;stroke-width:0.472632;fill-opacity:1" />
    <path
       d="m 577.80456,192.83255 h 9.60097 v 65.15412 h -9.44418 v -5.39764 c -3.36818,3.93228 -8.10687,6.52854 -14.95759,6.52854 -13.48748,0 -22.1551,-10.7694 -22.1551,-24.86682 0,-14.00132 8.66762,-24.86866 22.1551,-24.86866 5.7698,0 11.1338,2.09918 14.8008,5.84482 z m -0.21212,32.1696 c -2.79452,-4.14477 -7.52215,-6.69484 -13.08168,-6.69484 -8.3485,0 -14.10171,7.0829 -14.10171,15.94344 0,8.86055 5.54108,16.1541 14.10171,16.1541 5.72001,0 10.34803,-3.26519 13.08168,-7.49682 v -17.90588"
       id="path62"
       style="fill:#ffffff;fill-rule:evenodd;stroke-width:0.472632;fill-opacity:1" />
    <path
       d="m 447.23135,253.22286 v 22.39436 h -9.60282 V 210.4631 h 9.44418 v 5.39763 c 3.37003,-3.93042 8.10688,-6.52853 14.9576,-6.52853 13.48748,0 22.15694,10.7694 22.15694,24.86681 0,14.00133 -8.66946,24.86866 -22.15694,24.86866 -5.76796,0 -11.13196,-2.09733 -14.79896,-5.84481 z m 0.21212,-9.77525 c 2.79452,4.14478 7.52215,6.69484 13.08168,6.69484 8.3485,0 14.10171,-7.08289 14.10171,-15.94344 0,-8.8587 -5.54108,-16.1541 -14.10171,-16.1541 -5.72001,0 -10.34803,3.26519 -13.08168,7.49867 v 17.90403"
       id="path66"
       style="fill:#ffffff;fill-rule:evenodd;stroke-width:0.472632;fill-opacity:1" />
    <path
       d="M 403.57967,233.55226 386.84391,210.4594 h 11.84766 l 11.16147,15.75126 11.16332,-15.75126 h 11.68902 l -16.80769,23.19264 17.5861,24.33648 H 421.62507 L 409.72761,241.16734 397.832,257.98852 h -11.91221 l 17.65988,-24.43626"
       id="path68"
       style="fill:#ffffff;fill-rule:evenodd;stroke-width:0.472632;fill-opacity:1" />
    <path
       d="m 355.22803,230.10413 h 24.64711 v -9.32621 h -24.64711 v -16.94314 h 26.77943 v -9.32621 h -37.50189 v 63.47995 h 37.69741 v -9.32621 h -26.97495 v -18.55818"
       id="path70"
       style="fill:#ffffff;fill-rule:evenodd;stroke-width:0.472632;fill-opacity:1" />
  </g>
</svg>
